<svg xmlns="http://www.w3.org/2000/svg" viewBox="0 0 304 304" width="304" height="304">
    <path fill="#ffffff" d="M44.1 224a5 5 0 1 1 0 2H0v-2h44.1zm160 48a5 5 0 1 1 0 2H82v-2h122.1zm57.8-46a5 5 0 1 1 0-2H304v2h-42.1zm0 16a5 5 0 1 1 0-2H304v2h-42.1zm6.2-114a5 5 0 1 1 0 2h-86.2a5 5 0 1 1 0-2h86.2zm-256-48a5 5 0 1 1 0 2H0v-2h12.1zm185.8 34a5 5 0 1 1 0-2h86.2a5 5 0 1 1 0 2h-86.2zM258 12.1a5 5 0 1 1-2 0V0h2v12.1zm-64 208a5 5 0 1 1-2 0v-54.2a5 5 0 1 1 2 0v54.2zm48-198.2V80h62v2h-64V21.9a5 5 0 1 1 2 0zm16 16V64h46v2h-48V37.9a5 5 0 1 1 2 0zm-128 96V208h16v12.1a5 5 0 1 1-2 0V210h-16v-76.1a5 5 0 1 1 2 0zm-5.9-21.9a5 5 0 1 1 0 2H114v48H85.9a5 5 0 1 1 0-2H112v-48h12.1zm-6.2 130a5 5 0 1 1 0-2H176v-74.1a5 5 0 1 1 2 0V242h-60.1zm-16-64a5 5 0 1 1 0-2H114v48h10.1a5 5 0 1 1 0 2H112v-48h-10.1zM66 284.1a5 5 0 1 1-2 0V274H50v30h-2v-32h18v12.1zM236.1 176a5 5 0 1 1 0 2H226v94h48v32h-2v-30h-48v-98h12.1zm25.8-30a5 5 0 1 1 0-2H274v44.1a5 5 0 1 1-2 0V146h-10.1zm-64 96a5 5 0 1 1 0-2H208v-80h16v-14h-42.1a5 5 0 1 1 0-2H226v18h-16v80h-12.1zm86.2-210a5 5 0 1 1 0 2H272V0h2v32h10.1zM98 101.9V146H53.9a5 5 0 1 1 0-2H96v-42.1a5 5 0 1 1 2 0zM53.9 34a5 5 0 1 1 0-2H80V0h2v34H53.9zm60.1 3.9V66H82v64H69.9a5 5 0 1 1 0-2H80V64h32V37.9a5 5 0 1 1 2 0zM101.9 82a5 5 0 1 1 0-2H128V37.9a5 5 0 1 1 2 0V82h-28.1zm16-64a5 5 0 1 1 0-2H146v44.1a5 5 0 1 1-2 0V18h-26.1zm102.2 270a5 5 0 1 1 0 2H98v14h-2v-16h124.1zM242 149.9V160h16v34h-16v62h48v48h-2v-46h-48v-66h16v-30h-16v-12.1a5 5 0 1 1 2 0zM53.9 18a5 5 0 1 1 0-2H64V2H48V0h18v18H53.9zm112 32a5 5 0 1 1 0-2H192V0h50v2h-48v48h-28.1zm-48-48a5 5 0 0 1-9.8-2h2.07a3 3 0 1 0 5.66 0H178v34h-18V21.9a5 5 0 1 1 2 0V32h14V2h-58.1zm0 96a5 5 0 1 1 0-2H137l32-32h39V21.9a5 5 0 1 1 2 0V66h-40.17l-32 32H117.9zm28.1 90.1a5 5 0 1 1-2 0v-76.51L175.59 80H224V21.9a5 5 0 1 1 2 0V82h-49.59L146 112.41v75.69zm16 32a5 5 0 1 1-2 0v-99.51L184.59 96H224V21.9a5 5 0 1 1 2 0V98h-40.59L146 137.41v90.69zm-75.97-30.3l.1-.3h-3.9a5 5 0 1 1 0-2h4.39l2.3-6.79a5 5 0 0 1 9.42 1.98l-2.48 7.32a5 5 0 0 1-4.72 3.49H137a5 5 0 1 1 0-2h2.03zm-38.23-14.28l-7.3-2.48a5 5 0 1 1 1.98-9.42l6.79 2.3.3-.1V141a5 5 0 0 1 2 0v76.51l-7.77-2.63zm14.28-38.23l-2.48-7.3a5 5 0 1 1 9.42-1.98l2.3 6.79.1.3V160a5 5 0 0 1 0 2h-3.9l-2.48 7.32a5 5 0 0 1-4.72 3.49H98a5 5 0 1 1 0-2h2.03zm-75.97-30.3l.1-.3h-3.9a5 5 0 1 1 0-2h4.39l2.3-6.79a5 5 0 0 1 9.42 1.98l-2.48 7.32a5 5 0 0 1-4.72 3.49H38a5 5 0 1 1 0-2h2.03z"/>
</svg> 